<svg width="170" height="97" viewBox="0 0 170 97" fill="none" xmlns="http://www.w3.org/2000/svg">
<path d="M13.818 42.9512H168.6C169.245 42.9512 169.755 43.4958 169.717 44.141L167.195 83.7115C167.156 84.3012 166.667 84.7591 166.078 84.7591H158.723C158.106 84.7591 157.606 85.2586 157.606 85.8761V97.0045L143.071 84.9395C142.891 84.8215 142.676 84.7591 142.461 84.7591H19.7222C19.1671 84.7591 18.6988 84.3532 18.6156 83.8051L12.7114 44.2347C12.6108 43.5582 13.1346 42.9512 13.818 42.9512Z" fill="white"/>
<path d="M36.8052 88.2695L19.5818 88.6164L20.1611 92.3421L36.8052 92.068V88.2695Z" fill="white"/>
<path d="M57.6047 88.0742L40.4021 88.2581V91.9976L57.6047 91.6022V88.0742Z" fill="white"/>
<path d="M61.3376 91.5577L145.626 90.1666L142.407 87.5684L61.3376 88.0679V91.5577Z" fill="white"/>
<path d="M30.622 79.1317C29.8155 79.1317 29.0628 79.0242 28.3639 78.8092C27.6649 78.621 27.0332 78.2715 26.4687 77.7608C25.931 77.2231 25.474 76.457 25.0977 75.4623C24.7213 74.4677 24.4256 73.1774 24.2106 71.5913C24.0224 69.9784 23.9283 68.016 23.9283 65.7041C23.9283 62.989 24.0762 60.704 24.3719 58.8492C24.6945 56.9943 25.1246 55.4889 25.6622 54.333C26.2267 53.1771 26.845 52.2899 27.5171 51.6717C28.216 51.0534 28.9418 50.6367 29.6945 50.4216C30.4472 50.2066 31.1865 50.0991 31.9123 50.0991C32.9607 50.0991 33.7537 50.22 34.2914 50.462C34.829 50.677 35.1919 50.9593 35.3801 51.3087C35.5952 51.6582 35.7027 52.0077 35.7027 52.3571C35.7027 52.7873 35.6355 53.2039 35.5011 53.6072C35.3936 53.9835 35.2726 54.3195 35.1382 54.6152C35.0038 54.4808 34.8156 54.3464 34.5736 54.212C34.3317 54.0776 34.0494 53.9566 33.7269 53.8491C33.4043 53.7416 33.0548 53.6878 32.6785 53.6878C32.1946 53.6878 31.7107 53.7819 31.2268 53.9701C30.7698 54.1314 30.3263 54.454 29.8962 54.9378C29.466 55.4217 29.0897 56.1072 28.7671 56.9943C28.4714 57.8814 28.2295 59.0239 28.0413 60.4218C27.8531 61.7928 27.759 63.4729 27.759 65.4622C27.759 67.4246 27.8531 69.0375 28.0413 70.301C28.2295 71.5375 28.4714 72.5053 28.7671 73.2042C29.0897 73.8763 29.4795 74.3602 29.9365 74.6559C30.4204 74.9247 30.958 75.0591 31.5494 75.0591C32.2752 75.0591 32.9473 74.9516 33.5656 74.7365C34.2107 74.5215 34.7081 74.2795 35.0575 74.0107C35.1919 74.3064 35.3129 74.6559 35.4204 75.0591C35.528 75.4355 35.5817 75.8118 35.5817 76.1882C35.5817 76.7527 35.3801 77.2634 34.9769 77.7204C34.5736 78.1505 33.9957 78.4866 33.243 78.7285C32.4903 78.9973 31.6166 79.1317 30.622 79.1317ZM44.3388 79.1317C43.0216 79.1317 41.906 78.9167 40.992 78.4866C40.078 78.0565 39.3253 77.2903 38.7339 76.1882C38.1693 75.086 37.7527 73.594 37.4838 71.7123C37.215 69.8036 37.0806 67.3843 37.0806 64.4541C37.0806 60.8519 37.3629 58.0158 37.9274 55.9459C38.4919 53.8491 39.3387 52.3571 40.4678 51.47C41.6237 50.556 43.0619 50.0991 44.7823 50.0991C46.0996 50.0991 47.2152 50.3275 48.1292 50.7845C49.0432 51.2415 49.7824 52.0077 50.3469 53.083C50.9115 54.1583 51.3147 55.6099 51.5566 57.4379C51.8255 59.2659 51.9599 61.5643 51.9599 64.3331C51.9599 68.0698 51.6911 71.0133 51.1534 73.1639C50.6158 75.3145 49.7824 76.8468 48.6534 77.7608C47.5512 78.6748 46.113 79.1317 44.3388 79.1317ZM44.5001 75.3414C45.3872 75.3414 46.0727 74.9785 46.5566 74.2526C47.0673 73.5268 47.4302 72.3575 47.6453 70.7445C47.8603 69.1316 47.9679 67.0213 47.9679 64.4138C47.9679 61.8331 47.8738 59.7766 47.6856 58.2443C47.5243 56.6852 47.2017 55.5696 46.7179 54.8975C46.2609 54.2255 45.5888 53.8894 44.7017 53.8894C43.8684 53.8894 43.1963 54.2658 42.6855 55.0185C42.1748 55.7443 41.7984 56.9406 41.5565 58.6072C41.3414 60.2739 41.2339 62.5186 41.2339 65.3412C41.2339 67.7068 41.328 69.6289 41.5162 71.1074C41.7043 72.5591 42.0404 73.6344 42.5242 74.3333C43.0081 75.0053 43.6667 75.3414 44.5001 75.3414ZM65.7041 78.7285L61.1879 67.7203C60.9997 67.2364 60.7712 66.5912 60.5024 65.7848C60.2336 64.9783 59.9379 64.0912 59.6153 63.1234C59.3196 62.1557 59.0373 61.1879 58.7685 60.2202C58.4997 59.2524 58.2443 58.3653 58.0024 57.5588C57.7604 56.7524 57.5723 56.1072 57.4378 55.6233C57.3034 55.1126 57.2362 54.8572 57.2362 54.8572L55.0991 52.6797L55.341 50.5023H58.1637L62.5992 61.3089C62.8143 61.8465 63.0562 62.532 63.325 63.3654C63.6207 64.1987 63.9164 65.0993 64.2121 66.067C64.5078 67.0079 64.7901 67.9488 65.0589 68.8897C65.3277 69.8036 65.5697 70.6504 65.7847 71.43C66.0267 72.2096 66.2149 72.8413 66.3493 73.3252C66.4837 73.7822 66.5509 74.0107 66.5509 74.0107L68.809 76.5511L68.4864 78.7285H65.7041ZM54.6152 78.7285V51.2281C54.6152 50.7442 54.8572 50.5023 55.341 50.5023L58.2846 51.2281L57.7604 56.5911C57.8142 57.0212 57.8545 57.5588 57.8814 58.204C57.9352 58.8492 57.9889 59.5616 58.0427 60.3411C58.0965 61.0938 58.1368 61.86 58.1637 62.6396C58.1905 63.4191 58.204 64.1718 58.204 64.8977C58.2309 65.6235 58.2443 66.2821 58.2443 66.8735C58.2712 67.4649 58.2846 67.9353 58.2846 68.2848V78.0027C58.2846 78.2446 58.2309 78.4194 58.1233 78.5269C58.0158 78.6075 57.7067 78.6613 57.1959 78.6882C56.712 78.7151 55.8518 78.7285 54.6152 78.7285ZM68.4864 78.7285L65.5025 78.0027L65.9864 71.8736C65.9326 71.3897 65.8788 70.8386 65.8251 70.2203C65.7982 69.5752 65.7579 68.9031 65.7041 68.2042C65.6772 67.4783 65.6503 66.7525 65.6234 66.0267C65.5966 65.3009 65.5697 64.602 65.5428 63.9299C65.5428 63.2579 65.5294 62.6396 65.5025 62.075C65.5025 61.5105 65.5025 61.0401 65.5025 60.6637V51.2281C65.5025 50.9862 65.5562 50.8249 65.6638 50.7442C65.7982 50.6367 66.1208 50.5695 66.6315 50.5426C67.1423 50.5157 67.9891 50.5023 69.1719 50.5023V78.0027C69.1719 78.4866 68.9434 78.7285 68.4864 78.7285ZM72.0213 78.7285V51.2281C72.0213 51.2281 72.0482 51.1071 72.1019 50.8652C72.1826 50.6233 72.3842 50.5023 72.7068 50.5023H82.3844C82.3844 51.4969 82.3709 52.2093 82.344 52.6394C82.344 53.0695 82.2903 53.3518 82.1827 53.4862C82.1021 53.5937 81.9408 53.6475 81.6989 53.6475H75.6907V78.0027C75.6907 78.0027 75.6638 78.1237 75.6101 78.3656C75.5832 78.6075 75.395 78.7285 75.0455 78.7285H72.0213ZM72.4245 65.059V61.7121H81.3763C81.3763 63.0831 81.3494 63.9837 81.2956 64.4138C81.2419 64.8439 81.0402 65.059 80.6908 65.059H72.4245ZM84.3457 78.7285V52.1555C84.3457 51.591 84.3995 51.2012 84.507 50.9862C84.6145 50.7442 84.9237 50.6098 85.4344 50.5829C85.9721 50.5292 86.8592 50.5023 88.0958 50.5023V78.0027C88.0958 78.2446 88.042 78.4194 87.9345 78.5269C87.8269 78.6075 87.5043 78.6613 86.9667 78.6882C86.4559 78.7151 85.5823 78.7285 84.3457 78.7285ZM92.124 78.8092C91.9089 78.8092 91.5729 78.7957 91.1159 78.7688C90.6858 78.742 90.2557 78.7016 89.8256 78.6479L96.8821 51.0668C96.9628 50.6098 97.4332 50.3813 98.2934 50.3813C98.616 50.3813 98.9252 50.3948 99.2209 50.4216C99.5434 50.4485 99.8123 50.4888 100.027 50.5426L107.084 78.0833C107.138 78.3253 107.057 78.5135 106.842 78.6479C106.654 78.7554 106.197 78.8092 105.471 78.8092C105.229 78.8092 104.92 78.7957 104.544 78.7688C104.194 78.7688 103.791 78.7554 103.334 78.7285L99.7854 63.3654C99.6241 62.532 99.4494 61.6584 99.2612 60.7444C99.073 59.8304 98.9117 58.9298 98.7773 58.0427C98.6698 57.1556 98.5757 56.3626 98.495 55.6637C98.4413 56.3626 98.3337 57.1556 98.1725 58.0427C98.038 58.9298 97.8902 59.8304 97.7289 60.7444C97.5676 61.6584 97.3929 62.532 97.2047 63.3654L93.8175 78.0833C93.7907 78.3253 93.6831 78.5135 93.495 78.6479C93.3068 78.7554 92.8498 78.8092 92.124 78.8092ZM94.0998 71.7929V68.4864H103.576V71.7929H94.0998ZM119.849 78.7285L115.333 67.7203C115.145 67.2364 114.916 66.5912 114.647 65.7848C114.378 64.9783 114.083 64.0912 113.76 63.1234C113.464 62.1557 113.182 61.1879 112.913 60.2202C112.645 59.2524 112.389 58.3653 112.147 57.5588C111.905 56.7524 111.717 56.1072 111.583 55.6233C111.448 55.1126 111.381 54.8572 111.381 54.8572L109.244 52.6797L109.486 50.5023H112.309L116.744 61.3089C116.959 61.8465 117.201 62.532 117.47 63.3654C117.766 64.1987 118.061 65.0993 118.357 66.067C118.653 67.0079 118.935 67.9488 119.204 68.8897C119.473 69.8036 119.715 70.6504 119.93 71.43C120.172 72.2096 120.36 72.8413 120.494 73.3252C120.629 73.7822 120.696 74.0107 120.696 74.0107L122.954 76.5511L122.631 78.7285H119.849ZM108.76 78.7285V51.2281C108.76 50.7442 109.002 50.5023 109.486 50.5023L112.43 51.2281L111.905 56.5911C111.959 57.0212 111.999 57.5588 112.026 58.204C112.08 58.8492 112.134 59.5616 112.188 60.3411C112.241 61.0938 112.282 61.86 112.309 62.6396C112.335 63.4191 112.349 64.1718 112.349 64.8977C112.376 65.6235 112.389 66.2821 112.389 66.8735C112.416 67.4649 112.43 67.9353 112.43 68.2848V78.0027C112.43 78.2446 112.376 78.4194 112.268 78.5269C112.161 78.6075 111.852 78.6613 111.341 78.6882C110.857 78.7151 109.997 78.7285 108.76 78.7285ZM122.631 78.7285L119.647 78.0027L120.131 71.8736C120.078 71.3897 120.024 70.8386 119.97 70.2203C119.943 69.5752 119.903 68.9031 119.849 68.2042C119.822 67.4783 119.795 66.7525 119.768 66.0267C119.741 65.3009 119.715 64.602 119.688 63.9299C119.688 63.2579 119.674 62.6396 119.647 62.075C119.647 61.5105 119.647 61.0401 119.647 60.6637V51.2281C119.647 50.9862 119.701 50.8249 119.809 50.7442C119.943 50.6367 120.266 50.5695 120.776 50.5426C121.287 50.5157 122.134 50.5023 123.317 50.5023V78.0027C123.317 78.4866 123.088 78.7285 122.631 78.7285ZM126.157 78.7285C126.022 78.5672 125.901 78.379 125.794 78.164C125.686 77.9221 125.633 77.6398 125.633 77.3172C125.633 77.0484 125.659 76.793 125.713 76.5511C125.767 76.2822 125.848 76 125.955 75.7043L135.189 53.7685H128.052C127.756 53.7685 127.434 53.7819 127.084 53.8088C126.762 53.8357 126.493 53.876 126.278 53.9298V51.2281C126.278 50.7442 126.52 50.5023 127.004 50.5023H139.06C139.195 50.6636 139.289 50.8383 139.342 51.0265C139.396 51.1878 139.423 51.4028 139.423 51.6717C139.423 52.1824 139.302 52.7335 139.06 53.3249L129.665 75.4623H136.963C137.447 75.4623 137.891 75.4489 138.294 75.422C138.724 75.3682 139.114 75.2742 139.463 75.1398V78.0027C139.463 78.2178 139.41 78.3925 139.302 78.5269C139.221 78.6613 139.033 78.7285 138.738 78.7285H126.157ZM142.804 78.8092C142.589 78.8092 142.253 78.7957 141.796 78.7688C141.365 78.742 140.935 78.7016 140.505 78.6479L147.562 51.0668C147.642 50.6098 148.113 50.3813 148.973 50.3813C149.296 50.3813 149.605 50.3948 149.9 50.4216C150.223 50.4485 150.492 50.4888 150.707 50.5426L157.764 78.0833C157.817 78.3253 157.737 78.5135 157.522 78.6479C157.333 78.7554 156.876 78.8092 156.151 78.8092C155.909 78.8092 155.6 78.7957 155.223 78.7688C154.874 78.7688 154.47 78.7554 154.013 78.7285L150.465 63.3654C150.304 62.532 150.129 61.6584 149.941 60.7444C149.753 59.8304 149.591 58.9298 149.457 58.0427C149.349 57.1556 149.255 56.3626 149.175 55.6637C149.121 56.3626 149.013 57.1556 148.852 58.0427C148.718 58.9298 148.57 59.8304 148.409 60.7444C148.247 61.6584 148.073 62.532 147.884 63.3654L144.497 78.0833C144.47 78.3253 144.363 78.5135 144.175 78.6479C143.986 78.7554 143.529 78.8092 142.804 78.8092ZM144.779 71.7929V68.4864H154.255V71.7929H144.779Z" fill="#1D1D1B"/>
<path d="M10.9004 2.70703L2.66211 16.9717L1.87891 18.3271L1.73145 16.7686L0.506836 3.82227L0.505859 3.82129C0.427291 2.96751 1.08776 2.22628 1.94336 2.2002H1.94434L10.4531 1.95703L11.3486 1.93164L10.9004 2.70703Z" fill="#1D1D1B" stroke="white"/>
<path d="M61.6765 0.501953C62.5185 0.476079 63.21 1.15091 63.2048 1.99219L62.9265 44.2725C62.9211 45.0864 62.2628 45.7471 61.4451 45.7471H22.0867L10.282 57.1553L9.43433 57.9736V45.7471H5.82007C5.06268 45.7469 4.42304 45.1764 4.34448 44.417L2.24292 23.9502L2.22534 23.7852L2.31128 23.6426L15.2195 2.09668L15.3601 1.86133L15.6335 1.85352L61.6765 0.500977V0.501953Z" fill="#1D1D1B" stroke="white"/>
<path d="M16.3487 38.9936C15.5452 38.9936 14.7952 38.8864 14.0988 38.6722C13.4024 38.4847 12.7729 38.1365 12.2105 37.6275C11.6748 37.0918 11.2194 36.3285 10.8444 35.3374C10.4694 34.3464 10.1748 33.0607 9.96052 31.4804C9.77302 29.8733 9.67927 27.918 9.67927 25.6145C9.67927 22.9092 9.82659 20.6325 10.1212 18.7843C10.4426 16.9361 10.8712 15.4362 11.4069 14.2844C11.9694 13.1327 12.5854 12.2488 13.2551 11.6327C13.9515 11.0166 14.6747 10.6015 15.4247 10.3872C16.1746 10.1729 16.9112 10.0658 17.6344 10.0658C18.679 10.0658 19.4692 10.1863 20.0049 10.4274C20.5406 10.6417 20.9022 10.9229 21.0897 11.2711C21.304 11.6193 21.4111 11.9675 21.4111 12.3157C21.4111 12.7443 21.3441 13.1594 21.2102 13.5612C21.1031 13.9362 20.9825 14.271 20.8486 14.5657C20.7147 14.4317 20.5272 14.2978 20.2861 14.1639C20.0451 14.03 19.7638 13.9094 19.4424 13.8023C19.121 13.6951 18.7728 13.6416 18.3978 13.6416C17.9157 13.6416 17.4335 13.7353 16.9514 13.9228C16.4961 14.0835 16.0541 14.4049 15.6255 14.8871C15.197 15.3692 14.822 16.0522 14.5006 16.9361C14.2059 17.82 13.9649 18.9584 13.7774 20.3512C13.5899 21.7172 13.4961 23.3913 13.4961 25.3734C13.4961 27.3287 13.5899 28.9358 13.7774 30.1947C13.9649 31.4268 14.2059 32.3911 14.5006 33.0875C14.822 33.7571 15.2104 34.2392 15.6657 34.5339C16.1479 34.8017 16.6836 34.9356 17.2728 34.9356C17.996 34.9356 18.6656 34.8285 19.2817 34.6142C19.9245 34.3999 20.4201 34.1589 20.7683 33.891C20.9022 34.1857 21.0227 34.5339 21.1299 34.9356C21.237 35.3106 21.2906 35.6856 21.2906 36.0606C21.2906 36.6231 21.0897 37.132 20.6879 37.5874C20.2861 38.0159 19.7103 38.3507 18.9603 38.5918C18.2103 38.8596 17.3398 38.9936 16.3487 38.9936ZM30.016 38.9936C28.7035 38.9936 27.5919 38.7793 26.6813 38.3507C25.7706 37.9222 25.0206 37.1588 24.4313 36.0606C23.8688 34.9624 23.4537 33.4759 23.1858 31.6009C22.918 29.6992 22.784 27.2885 22.784 24.369C22.784 20.7798 23.0653 17.954 23.6278 15.8915C24.1903 13.8023 25.034 12.3157 26.159 11.4318C27.3107 10.5211 28.7437 10.0658 30.4579 10.0658C31.7704 10.0658 32.882 10.2934 33.7927 10.7488C34.7034 11.2041 35.44 11.9675 36.0024 13.0389C36.5649 14.1103 36.9667 15.5567 37.2078 17.3781C37.4756 19.1995 37.6095 21.4896 37.6095 24.2484C37.6095 27.9715 37.3417 30.9045 36.806 33.0473C36.2703 35.1901 35.44 36.7168 34.315 37.6275C33.2168 38.5382 31.7838 38.9936 30.016 38.9936ZM30.1767 35.2169C31.0606 35.2169 31.7436 34.8553 32.2258 34.1321C32.7347 33.4089 33.0963 32.2438 33.3105 30.6367C33.5248 29.0296 33.632 26.9269 33.632 24.3288C33.632 21.7574 33.5382 19.7084 33.3507 18.1816C33.19 16.6281 32.8686 15.5165 32.3865 14.8469C31.9311 14.1773 31.2615 13.8425 30.3776 13.8425C29.5473 13.8425 28.8776 14.2175 28.3687 14.9674C27.8598 15.6906 27.4848 16.8826 27.2437 18.5432C27.0295 20.2039 26.9223 22.4404 26.9223 25.2529C26.9223 27.6099 27.0161 29.5251 27.2036 30.9983C27.3911 32.4446 27.7259 33.516 28.208 34.2125C28.6901 34.8821 29.3464 35.2169 30.1767 35.2169ZM51.3041 38.5918L46.8042 27.6233C46.6167 27.1412 46.389 26.4984 46.1212 25.6948C45.8534 24.8913 45.5587 24.0074 45.2373 23.0431C44.9427 22.0788 44.6614 21.1146 44.3936 20.1503C44.1257 19.1861 43.8713 18.3022 43.6302 17.4986C43.3891 16.6951 43.2016 16.0522 43.0677 15.5701C42.9338 15.0612 42.8668 14.8067 42.8668 14.8067L40.7374 12.6371L40.9785 10.4676H43.7909L48.2104 21.2351C48.4247 21.7708 48.6658 22.4538 48.9336 23.2842C49.2283 24.1145 49.5229 25.0118 49.8175 25.9761C50.1122 26.9135 50.3934 27.851 50.6613 28.7885C50.9291 29.6992 51.1702 30.5429 51.3845 31.3197C51.6255 32.0964 51.813 32.7259 51.9469 33.208C52.0809 33.6634 52.1478 33.891 52.1478 33.891L54.3978 36.4222L54.0763 38.5918H51.3041ZM40.2553 38.5918V11.1907C40.2553 10.7086 40.4964 10.4676 40.9785 10.4676L43.9114 11.1907L43.3891 16.5344C43.4427 16.9629 43.4829 17.4986 43.5097 18.1415C43.5632 18.7843 43.6168 19.4941 43.6704 20.2709C43.7239 21.0208 43.7641 21.7842 43.7909 22.561C43.8177 23.3377 43.8311 24.0877 43.8311 24.8109C43.8579 25.5341 43.8713 26.1903 43.8713 26.7796C43.898 27.3689 43.9114 27.8376 43.9114 28.1858V37.8686C43.9114 38.1097 43.8579 38.2838 43.7507 38.3909C43.6436 38.4713 43.3356 38.5248 42.8266 38.5516C42.3445 38.5784 41.4874 38.5918 40.2553 38.5918ZM54.0763 38.5918L51.1032 37.8686L51.5853 31.7616C51.5318 31.2795 51.4782 30.7304 51.4246 30.1143C51.3978 29.4715 51.3577 28.8019 51.3041 28.1055C51.2773 27.3823 51.2505 26.6591 51.2237 25.9359C51.197 25.2127 51.1702 24.5163 51.1434 23.8467C51.1434 23.177 51.13 22.561 51.1032 21.9985C51.1032 21.436 51.1032 20.9673 51.1032 20.5923V11.1907C51.1032 10.9497 51.1568 10.789 51.2639 10.7086C51.3978 10.6015 51.7193 10.5345 52.2282 10.5077C52.7371 10.4809 53.5808 10.4676 54.7594 10.4676V37.8686C54.7594 38.3507 54.5317 38.5918 54.0763 38.5918Z" fill="white"/>
</svg>
